<?xml version="1.0" encoding="UTF-8" standalone="no"?>
<svg
   xmlns:dc="http://purl.org/dc/elements/1.1/"
   xmlns:cc="http://creativecommons.org/ns#"
   xmlns:rdf="http://www.w3.org/1999/02/22-rdf-syntax-ns#"
   xmlns:svg="http://www.w3.org/2000/svg"
   xmlns="http://www.w3.org/2000/svg"
   xmlns:sodipodi="http://sodipodi.sourceforge.net/DTD/sodipodi-0.dtd"
   xmlns:inkscape="http://www.inkscape.org/namespaces/inkscape"
   inkscape:version="1.0 (4035a4fb49, 2020-05-01)"
   sodipodi:docname="grinder.svg"
   xml:space="preserve"
   style="enable-background:new 0 0 511.999 511.999;"
   viewBox="0 0 511.999 511.999"
   y="0px"
   x="0px"
   id="Layer_1"
   version="1.1"><metadata
   id="metadata49"><rdf:RDF><cc:Work
       rdf:about=""><dc:format>image/svg+xml</dc:format><dc:type
         rdf:resource="http://purl.org/dc/dcmitype/StillImage" /></cc:Work></rdf:RDF></metadata><defs
   id="defs47" /><sodipodi:namedview
   inkscape:current-layer="Layer_1"
   inkscape:window-maximized="0"
   inkscape:window-y="0"
   inkscape:window-x="0"
   inkscape:cy="287.47633"
   inkscape:cx="112.20205"
   inkscape:zoom="0.69922013"
   showgrid="false"
   id="namedview45"
   inkscape:window-height="964"
   inkscape:window-width="1898"
   inkscape:pageshadow="2"
   inkscape:pageopacity="0"
   guidetolerance="10"
   gridtolerance="10"
   objecttolerance="10"
   borderopacity="1"
   bordercolor="#666666"
   pagecolor="#ffffff" />
<g
   style="fill:rgb(237, 182, 24);fill-opacity:1"
   id="g6">
	<g
   style="fill:rgb(237, 182, 24);fill-opacity:1"
   id="g4">
		<path
   style="fill:rgb(237, 182, 24);fill-opacity:1"
   id="path2"
   d="M417.713,224.08c-7.213-40.532-42.684-71.412-85.257-71.412h-61.248v-20.864h25.348v-30.417H109.908V80.521h16.007    c16.63,0,30.161-13.531,30.161-30.161v-20.2C156.076,13.53,142.545,0,125.915,0h-62.43c-16.63,0-30.16,13.53-30.16,30.161v20.2    c0,16.63,13.53,30.161,30.161,30.161h16.007v20.864H54.145v30.417h186.648v20.864h-61.248c-42.573,0-78.045,30.88-85.257,71.412    H23.498v85.751H64.92v116.417H23.498v85.752h465.002v-85.752H447.08V309.83h41.421v-85.75H417.713z M63.742,50.104V30.417h61.916    v19.687H63.742z M179.543,183.084h152.912c25.724,0,47.465,17.369,54.114,40.995H125.428    C132.078,200.453,153.82,183.084,179.543,183.084z M458.084,456.665v24.918H53.915v-24.918h26.214h15.209h321.325h15.209H458.084z     M95.337,426.248V309.831h321.325v116.417H95.337z M458.084,279.414h-26.213h-15.209H95.337H80.129H53.915v-24.917h39.006h326.156    h39.006V279.414z" />
	</g>
</g>
<g
   style="fill:rgb(237, 182, 24);fill-opacity:1"
   id="g12">
	<g
   style="fill:rgb(237, 182, 24);fill-opacity:1"
   id="g10">
		<path
   style="fill:rgb(237, 182, 24);fill-opacity:1"
   id="path8"
   d="M255.999,325.621c-23.389,0-42.418,19.03-42.418,42.421c0,23.388,19.029,42.416,42.418,42.416    c23.39,0,42.419-19.028,42.419-42.416C298.418,344.651,279.389,325.621,255.999,325.621z M255.999,380.041    c-6.617,0-12.001-5.383-12.001-11.999c0-6.619,5.384-12.004,12.001-12.004c6.618,0,12.002,5.385,12.002,12.004    C268.001,374.658,262.617,380.041,255.999,380.041z" />
	</g>
</g>
<g
   id="g14">
</g>
<g
   id="g16">
</g>
<g
   id="g18">
</g>
<g
   id="g20">
</g>
<g
   id="g22">
</g>
<g
   id="g24">
</g>
<g
   id="g26">
</g>
<g
   id="g28">
</g>
<g
   id="g30">
</g>
<g
   id="g32">
</g>
<g
   id="g34">
</g>
<g
   id="g36">
</g>
<g
   id="g38">
</g>
<g
   id="g40">
</g>
<g
   id="g42">
</g>
</svg>
